<?xml version="1.0" standalone="no"?><!DOCTYPE svg PUBLIC "-//W3C//DTD SVG 1.1//EN" "http://www.w3.org/Graphics/SVG/1.1/DTD/svg11.dtd"><svg t="1715234245196" class="icon" viewBox="0 0 1024 1024" version="1.1" xmlns="http://www.w3.org/2000/svg" p-id="5286" xmlns:xlink="http://www.w3.org/1999/xlink" width="200" height="200"><path d="M1009.494329 450.228016l-0.299985-0.299985L559.11632 19.349055c-25.998731-25.79874-68.19667-25.79874-94.295395 0L14.742901 450.028026l-0.299985 0.299985c-14.099312 13.999316-18.299106 34.898296-10.699478 53.297398 7.599629 18.399102 25.39876 30.298521 45.397783 30.29852h122.993995c2.599873 0 4.599775 1.999902 4.599775 4.499781v418.779552c0 36.798203 30.09853 66.796738 66.996729 66.796738h134.093452c36.998193 0 66.996729-29.998535 66.996729-66.796738V636.418925c0-12.299399 10.099507-22.298911 22.498902-22.298911h89.395634c12.399395 0 22.498901 9.999512 22.498902 22.298911v320.784337c0 36.798203 30.09853 66.796738 66.996729 66.796738h134.093452c36.898198 0 66.996729-29.998535 66.896734-66.896734V538.323715c0-2.499878 2.099897-4.49978 4.599775-4.499781h122.993994c19.999023 0 37.798154-11.899419 45.397784-30.29852 7.599629-18.299106 3.399834-39.298081-10.699478-53.297398z m-30.398516 36.398223c-1.099946 2.799863-3.399834 2.799863-4.199794 2.799863h-122.993995c-27.098677 0-49.097603 21.998926-49.097603 48.997608v418.779552c0 12.299399-10.099507 22.298911-22.498901 22.298911H646.212068c-12.399395 0-22.498901-9.999512-22.498902-22.298911V636.418925c0-36.798203-30.09853-66.796738-66.996729-66.796739h-89.395634c-36.898198 0-66.996729 29.998535-66.996729 66.796739v320.784337c0 12.299399-10.099507 22.298911-22.498902 22.298911H243.73172c-12.399395 0-22.498901-9.999512-22.498901-22.298911V538.42371c0-26.998682-21.998926-48.997608-49.097603-48.997608h-122.993995c-0.699966 0-2.999854 0-4.199794-2.799863-0.999951-2.499878 0.299985-4.0998 0.899956-4.699771l449.978028-430.578975 0.299985-0.299986c8.79957-8.699575 22.998877-8.699575 31.798448 0l0.299985 0.299986 449.978028 430.578975c0.699966 0.599971 1.899907 2.199893 0.899956 4.699771z" fill="" p-id="5287"></path></svg>