<?xml version="1.0" standalone="no"?><!DOCTYPE svg PUBLIC "-//W3C//DTD SVG 1.1//EN" "http://www.w3.org/Graphics/SVG/1.1/DTD/svg11.dtd"><svg t="1715227064181" class="icon" viewBox="0 0 1024 1024" version="1.1" xmlns="http://www.w3.org/2000/svg" p-id="4293" xmlns:xlink="http://www.w3.org/1999/xlink" width="200" height="200"><path d="M824.96 846.08a32.64 32.64 0 0 1-23.04-9.6L586.88 621.44A32.64 32.64 0 0 1 632.96 576l215.04 215.04a32.64 32.64 0 0 1-23.04 55.68zM323.2 341.76a32.64 32.64 0 0 1-23.04-9.6L181.12 215.68a32.64 32.64 0 1 1 46.08-46.08l119.04 116.48a32.64 32.64 0 0 1-23.04 55.68zM599.04 341.76A32.64 32.64 0 0 1 576 286.08l118.4-117.12a32.64 32.64 0 1 1 46.08 46.08L622.08 332.16a32.64 32.64 0 0 1-23.04 9.6zM204.8 736a32.64 32.64 0 0 1-23.04-55.68L300.16 563.2a32.64 32.64 0 1 1 46.08 46.08l-118.4 117.12a32.64 32.64 0 0 1-23.04 9.6z" fill="#323333" p-id="4294"></path><path d="M150.4 241.28A103.04 103.04 0 1 1 256 138.88a103.04 103.04 0 0 1-105.6 102.4z m0-140.16a37.76 37.76 0 1 0 37.76 37.76 37.76 37.76 0 0 0-37.76-37.76zM792.96 219.52A103.04 103.04 0 1 1 896 117.12a103.04 103.04 0 0 1-103.04 102.4z m0-140.16a37.76 37.76 0 0 0-37.76 37.76 37.76 37.76 0 0 0 74.88 0 37.76 37.76 0 0 0-37.12-37.76zM133.76 904.32a128 128 0 1 1 128-128 128 128 0 0 1-128 128z m0-192a64 64 0 1 0 0 128 64 64 0 1 0 0-128zM896 1009.92a128 128 0 1 1 128-128 128 128 0 0 1-128 128z m0-192a64 64 0 1 0 64 64 64 64 0 0 0-64-64zM460.8 668.16A219.52 219.52 0 1 1 680.32 448a219.52 219.52 0 0 1-219.52 220.16z m0-373.12A154.24 154.24 0 1 0 615.04 448 154.24 154.24 0 0 0 460.8 295.04z" fill="#323333" p-id="4295"></path></svg>